solid OBJECT
  facet normal -0 -1 -0
    outer loop
      vertex -54.688629150390625 29.839040756225586 2.6603620052337646
      vertex -54.688629150390625 29.839040756225586 2.2576756477355957
      vertex -54.389949798583984 29.839040756225586 2.2576756477355957
    endloop
  endfacet
  facet normal -0 -1 -0
    outer loop
      vertex -54.688629150390625 29.839040756225586 2.6603620052337646
      vertex -54.389949798583984 29.839040756225586 2.2576756477355957
      vertex -54.389949798583984 29.839040756225586 2.6603620052337646
    endloop
  endfacet
  facet normal 0 -1 0
    outer loop
      vertex -54.091270446777344 29.839040756225586 2.2576756477355957
      vertex -54.091270446777344 29.839040756225586 2.6603620052337646
      vertex -54.389949798583984 29.839040756225586 2.6603620052337646
    endloop
  endfacet
  facet normal 0 -1 0
    outer loop
      vertex -54.091270446777344 29.839040756225586 2.2576756477355957
      vertex -54.389949798583984 29.839040756225586 2.6603620052337646
      vertex -54.389949798583984 29.839040756225586 2.2576756477355957
    endloop
  endfacet
  facet normal 1 0 0
    outer loop
      vertex -54.091270446777344 29.839040756225586 2.6603620052337646
      vertex -54.091270446777344 29.839040756225586 2.2576756477355957
      vertex -54.091270446777344 30.146644592285156 2.2576756477355957
    endloop
  endfacet
  facet normal 1 0 0
    outer loop
      vertex -54.091270446777344 29.839040756225586 2.6603620052337646
      vertex -54.091270446777344 30.146644592285156 2.2576756477355957
      vertex -54.091270446777344 30.146644592285156 2.6603620052337646
    endloop
  endfacet
  facet normal 1 -0 -0
    outer loop
      vertex -54.091270446777344 30.454250335693359 2.2576756477355957
      vertex -54.091270446777344 30.454250335693359 2.6603620052337646
      vertex -54.091270446777344 30.146644592285156 2.6603620052337646
    endloop
  endfacet
  facet normal 1 -0 -0
    outer loop
      vertex -54.091270446777344 30.454250335693359 2.2576756477355957
      vertex -54.091270446777344 30.146644592285156 2.6603620052337646
      vertex -54.091270446777344 30.146644592285156 2.2576756477355957
    endloop
  endfacet
  facet normal -0 1 0
    outer loop
      vertex -54.091270446777344 30.454250335693359 2.6603620052337646
      vertex -54.091270446777344 30.454250335693359 2.2576756477355957
      vertex -54.389949798583984 30.454250335693359 2.2576756477355957
    endloop
  endfacet
  facet normal -0 1 0
    outer loop
      vertex -54.091270446777344 30.454250335693359 2.6603620052337646
      vertex -54.389949798583984 30.454250335693359 2.2576756477355957
      vertex -54.389949798583984 30.454250335693359 2.6603620052337646
    endloop
  endfacet
  facet normal 0 1 -0
    outer loop
      vertex -54.688629150390625 30.454250335693359 2.2576756477355957
      vertex -54.688629150390625 30.454250335693359 2.6603620052337646
      vertex -54.389949798583984 30.454250335693359 2.6603620052337646
    endloop
  endfacet
  facet normal 0 1 -0
    outer loop
      vertex -54.688629150390625 30.454250335693359 2.2576756477355957
      vertex -54.389949798583984 30.454250335693359 2.6603620052337646
      vertex -54.389949798583984 30.454250335693359 2.2576756477355957
    endloop
  endfacet
  facet normal -1 0 -0
    outer loop
      vertex -54.688629150390625 30.454250335693359 2.6603620052337646
      vertex -54.688629150390625 30.454250335693359 2.2576756477355957
      vertex -54.688629150390625 30.146644592285156 2.2576756477355957
    endloop
  endfacet
  facet normal -1 0 -0
    outer loop
      vertex -54.688629150390625 30.454250335693359 2.6603620052337646
      vertex -54.688629150390625 30.146644592285156 2.2576756477355957
      vertex -54.688629150390625 30.146644592285156 2.6603620052337646
    endloop
  endfacet
  facet normal -1 -0 0
    outer loop
      vertex -54.688629150390625 29.839040756225586 2.2576756477355957
      vertex -54.688629150390625 29.839040756225586 2.6603620052337646
      vertex -54.688629150390625 30.146644592285156 2.6603620052337646
    endloop
  endfacet
  facet normal -1 -0 0
    outer loop
      vertex -54.688629150390625 29.839040756225586 2.2576756477355957
      vertex -54.688629150390625 30.146644592285156 2.6603620052337646
      vertex -54.688629150390625 30.146644592285156 2.2576756477355957
    endloop
  endfacet
  facet normal 0 0 -1
    outer loop
      vertex -54.688629150390625 30.146644592285156 2.2576756477355957
      vertex -54.389949798583984 29.839040756225586 2.2576756477355957
      vertex -54.688629150390625 29.839040756225586 2.2576756477355957
    endloop
  endfacet
  facet normal -0 0 -1
    outer loop
      vertex -54.688629150390625 30.146644592285156 2.2576756477355957
      vertex -54.688629150390625 30.454250335693359 2.2576756477355957
      vertex -54.389949798583984 30.454250335693359 2.2576756477355957
    endloop
  endfacet
  facet normal 0 -0 -1
    outer loop
      vertex -54.091270446777344 30.146644592285156 2.2576756477355957
      vertex -54.389949798583984 29.839040756225586 2.2576756477355957
      vertex -54.688629150390625 30.146644592285156 2.2576756477355957
    endloop
  endfacet
  facet normal -0 0 -1
    outer loop
      vertex -54.688629150390625 30.146644592285156 2.2576756477355957
      vertex -54.389949798583984 30.454250335693359 2.2576756477355957
      vertex -54.091270446777344 30.146644592285156 2.2576756477355957
    endloop
  endfacet
  facet normal -0 0 -1
    outer loop
      vertex -54.091270446777344 30.146644592285156 2.2576756477355957
      vertex -54.389949798583984 30.454250335693359 2.2576756477355957
      vertex -54.091270446777344 30.454250335693359 2.2576756477355957
    endloop
  endfacet
  facet normal 0 0 -1
    outer loop
      vertex -54.091270446777344 29.839040756225586 2.2576756477355957
      vertex -54.389949798583984 29.839040756225586 2.2576756477355957
      vertex -54.091270446777344 30.146644592285156 2.2576756477355957
    endloop
  endfacet
  facet normal 0 0 1
    outer loop
      vertex -54.688629150390625 30.146644592285156 2.6603620052337646
      vertex -54.688629150390625 29.839040756225586 2.6603620052337646
      vertex -54.389949798583984 29.839040756225586 2.6603620052337646
    endloop
  endfacet
  facet normal -0 0 1
    outer loop
      vertex -54.688629150390625 30.146644592285156 2.6603620052337646
      vertex -54.389949798583984 30.454250335693359 2.6603620052337646
      vertex -54.688629150390625 30.454250335693359 2.6603620052337646
    endloop
  endfacet
  facet normal 0 -0 1
    outer loop
      vertex -54.091270446777344 30.146644592285156 2.6603620052337646
      vertex -54.688629150390625 30.146644592285156 2.6603620052337646
      vertex -54.389949798583984 29.839040756225586 2.6603620052337646
    endloop
  endfacet
  facet normal -0 0 1
    outer loop
      vertex -54.688629150390625 30.146644592285156 2.6603620052337646
      vertex -54.091270446777344 30.146644592285156 2.6603620052337646
      vertex -54.389949798583984 30.454250335693359 2.6603620052337646
    endloop
  endfacet
  facet normal -0 -0 1
    outer loop
      vertex -54.091270446777344 30.146644592285156 2.6603620052337646
      vertex -54.091270446777344 30.454250335693359 2.6603620052337646
      vertex -54.389949798583984 30.454250335693359 2.6603620052337646
    endloop
  endfacet
  facet normal -0 -0 1
    outer loop
      vertex -54.091270446777344 29.839040756225586 2.6603620052337646
      vertex -54.091270446777344 30.146644592285156 2.6603620052337646
      vertex -54.389949798583984 29.839040756225586 2.6603620052337646
    endloop
  endfacet
  facet normal 0 -1 -0
    outer loop
      vertex -55.940334320068359 25.643108367919922 1.1288378238677979
      vertex -53.493911743164062 25.643108367919922 1.1288378238677979
      vertex -53.493911743164062 25.643108367919922 2.2576756477355957
    endloop
  endfacet
  facet normal 0 -1 0
    outer loop
      vertex -55.940334320068359 25.643108367919922 1.1288378238677979
      vertex -53.493911743164062 25.643108367919922 2.2576756477355957
      vertex -54.717124938964844 25.643108367919922 2.2576756477355957
    endloop
  endfacet
  facet normal 0 -1 -0
    outer loop
      vertex -55.940334320068359 25.643108367919922 1.1288378238677979
      vertex -54.717124938964844 25.643108367919922 2.2576756477355957
      vertex -55.940334320068359 25.643108367919922 2.2576756477355957
    endloop
  endfacet
  facet normal 0 -1 0
    outer loop
      vertex -54.717124938964844 25.643108367919922 0
      vertex -55.940334320068359 25.643108367919922 1.1288378238677979
      vertex -55.940334320068359 25.643108367919922 0
    endloop
  endfacet
  facet normal -0 -1 0
    outer loop
      vertex -53.493911743164062 25.643108367919922 1.1288378238677979
      vertex -54.717124938964844 25.643108367919922 0
      vertex -53.493911743164062 25.643108367919922 0
    endloop
  endfacet
  facet normal -0 -1 -0
    outer loop
      vertex -54.717124938964844 25.643108367919922 0
      vertex -53.493911743164062 25.643108367919922 1.1288378238677979
      vertex -55.940334320068359 25.643108367919922 1.1288378238677979
    endloop
  endfacet
  facet normal 1 0 -0
    outer loop
      vertex -53.493911743164062 30.391166687011719 1.9754661321640015
      vertex -53.493911743164062 29.712871551513672 1.9754661321640015
      vertex -53.493911743164062 29.712871551513672 1.6932567358016968
    endloop
  endfacet
  facet normal 1 0 -0
    outer loop
      vertex -53.493911743164062 30.391166687011719 1.9754661321640015
      vertex -53.493911743164062 29.712871551513672 1.6932567358016968
      vertex -53.493911743164062 30.391166687011719 1.6932567358016968
    endloop
  endfacet
  facet normal 1 0 -0
    outer loop
      vertex -53.493911743164062 29.034578323364258 1.9754661321640015
      vertex -53.493911743164062 28.356285095214844 1.9754661321640015
      vertex -53.493911743164062 28.356285095214844 1.6932567358016968
    endloop
  endfacet
  facet normal 1 0 -0
    outer loop
      vertex -53.493911743164062 29.034578323364258 1.9754661321640015
      vertex -53.493911743164062 28.356285095214844 1.6932567358016968
      vertex -53.493911743164062 29.034578323364258 1.6932567358016968
    endloop
  endfacet
  facet normal 1 0 -0
    outer loop
      vertex -53.493911743164062 29.712871551513672 1.9754661321640015
      vertex -53.493911743164062 29.034578323364258 1.9754661321640015
      vertex -53.493911743164062 29.034578323364258 1.6932567358016968
    endloop
  endfacet
  facet normal 1 0 -0
    outer loop
      vertex -53.493911743164062 29.712871551513672 1.9754661321640015
      vertex -53.493911743164062 29.034578323364258 1.6932567358016968
      vertex -53.493911743164062 29.712871551513672 1.6932567358016968
    endloop
  endfacet
  facet normal 1 0 -0
    outer loop
      vertex -53.493911743164062 29.034578323364258 1.6932567358016968
      vertex -53.493911743164062 28.356285095214844 1.6932567358016968
      vertex -53.493911743164062 28.356285095214844 1.1288378238677979
    endloop
  endfacet
  facet normal 1 0 0
    outer loop
      vertex -53.493911743164062 29.712871551513672 1.1288378238677979
      vertex -53.493911743164062 29.712871551513672 1.6932567358016968
      vertex -53.493911743164062 29.034578323364258 1.6932567358016968
    endloop
  endfacet
  facet normal 1 -0 0
    outer loop
      vertex -53.493911743164062 28.356285095214844 1.1288378238677979
      vertex -53.493911743164062 29.712871551513672 1.1288378238677979
      vertex -53.493911743164062 29.034578323364258 1.6932567358016968
    endloop
  endfacet
  facet normal 1 0 -0
    outer loop
      vertex -53.493911743164062 28.356285095214844 1.6932567358016968
      vertex -53.493911743164062 26.999696731567383 1.6932567358016968
      vertex -53.493911743164062 26.999696731567383 1.1288378238677979
    endloop
  endfacet
  facet normal 1 0 -0
    outer loop
      vertex -53.493911743164062 28.356285095214844 1.6932567358016968
      vertex -53.493911743164062 26.999696731567383 1.1288378238677979
      vertex -53.493911743164062 28.356285095214844 1.1288378238677979
    endloop
  endfacet
  facet normal 1 0 -0
    outer loop
      vertex -53.493911743164062 25.643108367919922 1.1288378238677979
      vertex -53.493911743164062 25.643108367919922 0
      vertex -53.493911743164062 26.999696731567383 1.1288378238677979
    endloop
  endfacet
  facet normal 1 -0 0
    outer loop
      vertex -53.493911743164062 25.643108367919922 0
      vertex -53.493911743164062 28.356285095214844 0
      vertex -53.493911743164062 28.356285095214844 1.1288378238677979
    endloop
  endfacet
  facet normal 1 -0 0
    outer loop
      vertex -53.493911743164062 25.643108367919922 0
      vertex -53.493911743164062 28.356285095214844 1.1288378238677979
      vertex -53.493911743164062 26.999696731567383 1.1288378238677979
    endloop
  endfacet
  facet normal 1 0 -0
    outer loop
      vertex -53.493911743164062 26.999696731567383 1.6932567358016968
      vertex -53.493911743164062 25.643108367919922 1.1288378238677979
      vertex -53.493911743164062 26.999696731567383 1.1288378238677979
    endloop
  endfacet
  facet normal 1 0 -0
    outer loop
      vertex -53.493911743164062 28.356285095214844 1.9754661321640015
      vertex -53.493911743164062 26.999696731567383 1.6932567358016968
      vertex -53.493911743164062 28.356285095214844 1.6932567358016968
    endloop
  endfacet
  facet normal 1 0 -0
    outer loop
      vertex -53.493911743164062 25.643108367919922 2.2576756477355957
      vertex -53.493911743164062 25.643108367919922 1.1288378238677979
      vertex -53.493911743164062 26.999696731567383 1.6932567358016968
    endloop
  endfacet
  facet normal 1 0 0
    outer loop
      vertex -53.493911743164062 25.643108367919922 2.2576756477355957
      vertex -53.493911743164062 26.999696731567383 1.6932567358016968
      vertex -53.493911743164062 26.999696731567383 2.2576756477355957
    endloop
  endfacet
  facet normal 1 0 -0
    outer loop
      vertex -53.493911743164062 28.356285095214844 1.9754661321640015
      vertex -53.493911743164062 26.999696731567383 2.2576756477355957
      vertex -53.493911743164062 26.999696731567383 1.6932567358016968
    endloop
  endfacet
  facet normal 1 0 -0
    outer loop
      vertex -53.493911743164062 28.356285095214844 2.2576756477355957
      vertex -53.493911743164062 26.999696731567383 2.2576756477355957
      vertex -53.493911743164062 28.356285095214844 1.9754661321640015
    endloop
  endfacet
  facet normal 1 0 0
    outer loop
      vertex -53.493911743164062 28.356285095214844 2.2576756477355957
      vertex -53.493911743164062 28.356285095214844 1.9754661321640015
      vertex -53.493911743164062 28.627601623535156 2.2576756477355957
    endloop
  endfacet
  facet normal 1 -0 0
    outer loop
      vertex -53.493911743164062 28.356285095214844 1.9754661321640015
      vertex -53.493911743164062 29.034578323364258 1.9754661321640015
      vertex -53.493911743164062 28.898920059204102 2.2576756477355957
    endloop
  endfacet
  facet normal 1 0 -0
    outer loop
      vertex -53.493911743164062 28.356285095214844 1.9754661321640015
      vertex -53.493911743164062 28.898920059204102 2.2576756477355957
      vertex -53.493911743164062 28.627601623535156 2.2576756477355957
    endloop
  endfacet
  facet normal 1 0 0
    outer loop
      vertex -53.493911743164062 28.898920059204102 2.2576756477355957
      vertex -53.493911743164062 29.034578323364258 1.9754661321640015
      vertex -53.493911743164062 29.170236587524414 2.2576756477355957
    endloop
  endfacet
  facet normal 1 0 -0
    outer loop
      vertex -53.493911743164062 29.712871551513672 1.1288378238677979
      vertex -53.493911743164062 28.356285095214844 1.1288378238677979
      vertex -53.493911743164062 28.356285095214844 0
    endloop
  endfacet
  facet normal 1 0 -0
    outer loop
      vertex -53.493911743164062 30.391166687011719 1.6932567358016968
      vertex -53.493911743164062 29.712871551513672 1.6932567358016968
      vertex -53.493911743164062 29.712871551513672 1.1288378238677979
    endloop
  endfacet
  facet normal 1 -0 0
    outer loop
      vertex -53.493911743164062 29.034578323364258 1.9754661321640015
      vertex -53.493911743164062 29.712871551513672 1.9754661321640015
      vertex -53.493911743164062 29.441555023193359 2.2576756477355957
    endloop
  endfacet
  facet normal 1 -0 0
    outer loop
      vertex -53.493911743164062 29.034578323364258 1.9754661321640015
      vertex -53.493911743164062 29.441555023193359 2.2576756477355957
      vertex -53.493911743164062 29.170236587524414 2.2576756477355957
    endloop
  endfacet
  facet normal 1 -0 0
    outer loop
      vertex -53.493911743164062 29.712871551513672 1.1288378238677979
      vertex -53.493911743164062 31.069459915161133 1.1288378238677979
      vertex -53.493911743164062 30.391166687011719 1.6932567358016968
    endloop
  endfacet
  facet normal 1 -0 0
    outer loop
      vertex -53.493911743164062 30.391166687011719 1.6932567358016968
      vertex -53.493911743164062 31.069459915161133 2.2576756477355957
      vertex -53.493911743164062 30.391166687011719 1.9754661321640015
    endloop
  endfacet
  facet normal 1 0 -0
    outer loop
      vertex -53.493911743164062 31.069459915161133 2.2576756477355957
      vertex -53.493911743164062 30.391166687011719 1.6932567358016968
      vertex -53.493911743164062 31.069459915161133 1.1288378238677979
    endloop
  endfacet
  facet normal 1 0 0
    outer loop
      vertex -53.493911743164062 31.069459915161133 0
      vertex -53.493911743164062 31.069459915161133 1.1288378238677979
      vertex -53.493911743164062 29.712871551513672 1.1288378238677979
    endloop
  endfacet
  facet normal 1 -0 -0
    outer loop
      vertex -53.493911743164062 31.069459915161133 0
      vertex -53.493911743164062 29.712871551513672 1.1288378238677979
      vertex -53.493911743164062 28.356285095214844 0
    endloop
  endfacet
  facet normal 1 -0 0
    outer loop
      vertex -53.493911743164062 29.712871551513672 1.9754661321640015
      vertex -53.493911743164062 30.391166687011719 1.9754661321640015
      vertex -53.493911743164062 30.255508422851562 2.2576756477355957
    endloop
  endfacet
  facet normal 1 -0 0
    outer loop
      vertex -53.493911743164062 29.712871551513672 1.9754661321640015
      vertex -53.493911743164062 30.255508422851562 2.2576756477355957
      vertex -53.493911743164062 29.984189987182617 2.2576756477355957
    endloop
  endfacet
  facet normal 1 -0 0
    outer loop
      vertex -53.493911743164062 29.712871551513672 1.9754661321640015
      vertex -53.493911743164062 29.984189987182617 2.2576756477355957
      vertex -53.493911743164062 29.712871551513672 2.2576756477355957
    endloop
  endfacet
  facet normal 1 -0 0
    outer loop
      vertex -53.493911743164062 29.712871551513672 2.2576756477355957
      vertex -53.493911743164062 29.441555023193359 2.2576756477355957
      vertex -53.493911743164062 29.712871551513672 1.9754661321640015
    endloop
  endfacet
  facet normal 1 -0 0
    outer loop
      vertex -53.493911743164062 30.391166687011719 1.9754661321640015
      vertex -53.493911743164062 30.526824951171875 2.2576756477355957
      vertex -53.493911743164062 30.255508422851562 2.2576756477355957
    endloop
  endfacet
  facet normal 1 0 -0
    outer loop
      vertex -53.493911743164062 30.391166687011719 1.9754661321640015
      vertex -53.493911743164062 31.069459915161133 2.2576756477355957
      vertex -53.493911743164062 30.79814338684082 2.2576756477355957
    endloop
  endfacet
  facet normal 1 0 -0
    outer loop
      vertex -53.493911743164062 30.79814338684082 2.2576756477355957
      vertex -53.493911743164062 30.526824951171875 2.2576756477355957
      vertex -53.493911743164062 30.391166687011719 1.9754661321640015
    endloop
  endfacet
  facet normal -0 1 -0
    outer loop
      vertex -55.328727722167969 31.069459915161133 1.6932567358016968
      vertex -54.717124938964844 31.069459915161133 1.6932567358016968
      vertex -54.717124938964844 31.069459915161133 1.1288378238677979
    endloop
  endfacet
  facet normal -0 1 -0
    outer loop
      vertex -55.328727722167969 31.069459915161133 1.6932567358016968
      vertex -54.717124938964844 31.069459915161133 1.1288378238677979
      vertex -55.328727722167969 31.069459915161133 1.1288378238677979
    endloop
  endfacet
  facet normal -0 1 -0
    outer loop
      vertex -54.717124938964844 31.069459915161133 1.6932567358016968
      vertex -54.105518341064453 31.069459915161133 1.6932567358016968
      vertex -54.105518341064453 31.069459915161133 1.1288378238677979
    endloop
  endfacet
  facet normal -0 1 -0
    outer loop
      vertex -54.717124938964844 31.069459915161133 1.6932567358016968
      vertex -54.105518341064453 31.069459915161133 1.1288378238677979
      vertex -54.717124938964844 31.069459915161133 1.1288378238677979
    endloop
  endfacet
  facet normal 0 1 0
    outer loop
      vertex -54.105518341064453 31.069459915161133 1.1288378238677979
      vertex -53.493911743164062 31.069459915161133 1.1288378238677979
      vertex -53.493911743164062 31.069459915161133 0
    endloop
  endfacet
  facet normal -0 1 0
    outer loop
      vertex -54.105518341064453 31.069459915161133 1.1288378238677979
      vertex -54.717124938964844 31.069459915161133 0
      vertex -54.717124938964844 31.069459915161133 1.1288378238677979
    endloop
  endfacet
  facet normal 0 1 0
    outer loop
      vertex -54.105518341064453 31.069459915161133 1.6932567358016968
      vertex -54.717124938964844 31.069459915161133 1.6932567358016968
      vertex -54.581211090087891 31.069459915161133 2.2576756477355957
    endloop
  endfacet
  facet normal 0 1 0
    outer loop
      vertex -54.105518341064453 31.069459915161133 1.6932567358016968
      vertex -54.581211090087891 31.069459915161133 2.2576756477355957
      vertex -54.30938720703125 31.069459915161133 2.2576756477355957
    endloop
  endfacet
  facet normal 0 1 0
    outer loop
      vertex -53.493911743164062 31.069459915161133 1.1288378238677979
      vertex -54.105518341064453 31.069459915161133 1.1288378238677979
      vertex -54.105518341064453 31.069459915161133 1.6932567358016968
    endloop
  endfacet
  facet normal 0 1 -0
    outer loop
      vertex -54.717124938964844 31.069459915161133 0
      vertex -54.105518341064453 31.069459915161133 1.1288378238677979
      vertex -53.493911743164062 31.069459915161133 0
    endloop
  endfacet
  facet normal -0 1 0
    outer loop
      vertex -53.493911743164062 31.069459915161133 2.2576756477355957
      vertex -53.493911743164062 31.069459915161133 1.1288378238677979
      vertex -54.105518341064453 31.069459915161133 1.6932567358016968
    endloop
  endfacet
  facet normal 0 1 -0
    outer loop
      vertex -54.105518341064453 31.069459915161133 1.6932567358016968
      vertex -53.765735626220703 31.069459915161133 2.2576756477355957
      vertex -53.493911743164062 31.069459915161133 2.2576756477355957
    endloop
  endfacet
  facet normal 0 1 0
    outer loop
      vertex -54.105518341064453 31.069459915161133 1.6932567358016968
      vertex -54.30938720703125 31.069459915161133 2.2576756477355957
      vertex -54.037563323974609 31.069459915161133 2.2576756477355957
    endloop
  endfacet
  facet normal 0 1 0
    outer loop
      vertex -54.037563323974609 31.069459915161133 2.2576756477355957
      vertex -53.765735626220703 31.069459915161133 2.2576756477355957
      vertex -54.105518341064453 31.069459915161133 1.6932567358016968
    endloop
  endfacet
  facet normal 0 1 0
    outer loop
      vertex -54.717124938964844 31.069459915161133 0
      vertex -55.328727722167969 31.069459915161133 1.1288378238677979
      vertex -54.717124938964844 31.069459915161133 1.1288378238677979
    endloop
  endfacet
  facet normal 0 1 0
    outer loop
      vertex -55.940334320068359 31.069459915161133 1.1288378238677979
      vertex -55.328727722167969 31.069459915161133 1.1288378238677979
      vertex -55.940334320068359 31.069459915161133 0
    endloop
  endfacet
  facet normal 0 1 0
    outer loop
      vertex -54.717124938964844 31.069459915161133 0
      vertex -55.940334320068359 31.069459915161133 0
      vertex -55.328727722167969 31.069459915161133 1.1288378238677979
    endloop
  endfacet
  facet normal 0 1 -0
    outer loop
      vertex -55.940334320068359 31.069459915161133 1.1288378238677979
      vertex -55.328727722167969 31.069459915161133 1.6932567358016968
      vertex -55.328727722167969 31.069459915161133 1.1288378238677979
    endloop
  endfacet
  facet normal -0 1 0
    outer loop
      vertex -54.853034973144531 31.069459915161133 2.2576756477355957
      vertex -54.717124938964844 31.069459915161133 1.6932567358016968
      vertex -55.124858856201172 31.069459915161133 2.2576756477355957
    endloop
  endfacet
  facet normal 0 1 -0
    outer loop
      vertex -55.328727722167969 31.069459915161133 1.6932567358016968
      vertex -55.124858856201172 31.069459915161133 2.2576756477355957
      vertex -54.717124938964844 31.069459915161133 1.6932567358016968
    endloop
  endfacet
  facet normal 0 1 0
    outer loop
      vertex -55.396686553955078 31.069459915161133 2.2576756477355957
      vertex -55.124858856201172 31.069459915161133 2.2576756477355957
      vertex -55.328727722167969 31.069459915161133 1.6932567358016968
    endloop
  endfacet
  facet normal 0 1 0
    outer loop
      vertex -55.328727722167969 31.069459915161133 1.6932567358016968
      vertex -55.668510437011719 31.069459915161133 2.2576756477355957
      vertex -55.396686553955078 31.069459915161133 2.2576756477355957
    endloop
  endfacet
  facet normal 0 1 0
    outer loop
      vertex -55.328727722167969 31.069459915161133 1.6932567358016968
      vertex -55.940334320068359 31.069459915161133 2.2576756477355957
      vertex -55.668510437011719 31.069459915161133 2.2576756477355957
    endloop
  endfacet
  facet normal -0 1 -0
    outer loop
      vertex -55.940334320068359 31.069459915161133 2.2576756477355957
      vertex -55.328727722167969 31.069459915161133 1.6932567358016968
      vertex -55.940334320068359 31.069459915161133 1.1288378238677979
    endloop
  endfacet
  facet normal -0 1 0
    outer loop
      vertex -54.581211090087891 31.069459915161133 2.2576756477355957
      vertex -54.717124938964844 31.069459915161133 1.6932567358016968
      vertex -54.853034973144531 31.069459915161133 2.2576756477355957
    endloop
  endfacet
  facet normal -1 0 0
    outer loop
      vertex -55.940334320068359 26.999696731567383 1.6932567358016968
      vertex -55.940334320068359 28.356285095214844 1.6932567358016968
      vertex -55.940334320068359 28.356285095214844 1.1288378238677979
    endloop
  endfacet
  facet normal -1 0 0
    outer loop
      vertex -55.940334320068359 26.999696731567383 1.6932567358016968
      vertex -55.940334320068359 28.356285095214844 1.1288378238677979
      vertex -55.940334320068359 26.999696731567383 1.1288378238677979
    endloop
  endfacet
  facet normal -1 0 0
    outer loop
      vertex -55.940334320068359 29.034578323364258 1.9754661321640015
      vertex -55.940334320068359 29.712871551513672 1.9754661321640015
      vertex -55.940334320068359 29.712871551513672 1.6932567358016968
    endloop
  endfacet
  facet normal -1 0 0
    outer loop
      vertex -55.940334320068359 29.034578323364258 1.9754661321640015
      vertex -55.940334320068359 29.712871551513672 1.6932567358016968
      vertex -55.940334320068359 29.034578323364258 1.6932567358016968
    endloop
  endfacet
  facet normal -1 0 0
    outer loop
      vertex -55.940334320068359 28.356285095214844 1.9754661321640015
      vertex -55.940334320068359 29.034578323364258 1.9754661321640015
      vertex -55.940334320068359 29.034578323364258 1.6932567358016968
    endloop
  endfacet
  facet normal -1 0 0
    outer loop
      vertex -55.940334320068359 28.356285095214844 1.9754661321640015
      vertex -55.940334320068359 29.034578323364258 1.6932567358016968
      vertex -55.940334320068359 28.356285095214844 1.6932567358016968
    endloop
  endfacet
  facet normal -1 0 0
    outer loop
      vertex -55.940334320068359 29.712871551513672 1.9754661321640015
      vertex -55.940334320068359 30.391166687011719 1.9754661321640015
      vertex -55.940334320068359 30.391166687011719 1.6932567358016968
    endloop
  endfacet
  facet normal -1 0 0
    outer loop
      vertex -55.940334320068359 29.712871551513672 1.9754661321640015
      vertex -55.940334320068359 30.391166687011719 1.6932567358016968
      vertex -55.940334320068359 29.712871551513672 1.6932567358016968
    endloop
  endfacet
  facet normal -1 0 0
    outer loop
      vertex -55.940334320068359 29.034578323364258 1.6932567358016968
      vertex -55.940334320068359 29.712871551513672 1.6932567358016968
      vertex -55.940334320068359 29.712871551513672 1.1288378238677979
    endloop
  endfacet
  facet normal -1 0 -0
    outer loop
      vertex -55.940334320068359 28.356285095214844 1.1288378238677979
      vertex -55.940334320068359 28.356285095214844 1.6932567358016968
      vertex -55.940334320068359 29.034578323364258 1.6932567358016968
    endloop
  endfacet
  facet normal -1 -0 -0
    outer loop
      vertex -55.940334320068359 29.712871551513672 1.1288378238677979
      vertex -55.940334320068359 28.356285095214844 1.1288378238677979
      vertex -55.940334320068359 29.034578323364258 1.6932567358016968
    endloop
  endfacet
  facet normal -1 -0 0
    outer loop
      vertex -55.940334320068359 30.391166687011719 1.6932567358016968
      vertex -55.940334320068359 31.069459915161133 1.1288378238677979
      vertex -55.940334320068359 29.712871551513672 1.1288378238677979
    endloop
  endfacet
  facet normal -1 -0 -0
    outer loop
      vertex -55.940334320068359 31.069459915161133 0
      vertex -55.940334320068359 29.712871551513672 1.1288378238677979
      vertex -55.940334320068359 31.069459915161133 1.1288378238677979
    endloop
  endfacet
  facet normal -1 0 -0
    outer loop
      vertex -55.940334320068359 31.069459915161133 2.2576756477355957
      vertex -55.940334320068359 31.069459915161133 1.1288378238677979
      vertex -55.940334320068359 30.391166687011719 1.6932567358016968
    endloop
  endfacet
  facet normal -1 0 -0
    outer loop
      vertex -55.940334320068359 31.069459915161133 2.2576756477355957
      vertex -55.940334320068359 30.391166687011719 1.6932567358016968
      vertex -55.940334320068359 30.391166687011719 1.9754661321640015
    endloop
  endfacet
  facet normal -1 -0 -0
    outer loop
      vertex -55.940334320068359 30.391166687011719 1.9754661321640015
      vertex -55.940334320068359 29.712871551513672 1.9754661321640015
      vertex -55.940334320068359 29.984189987182617 2.2576756477355957
    endloop
  endfacet
  facet normal -1 -0 -0
    outer loop
      vertex -55.940334320068359 30.391166687011719 1.9754661321640015
      vertex -55.940334320068359 29.984189987182617 2.2576756477355957
      vertex -55.940334320068359 30.255508422851562 2.2576756477355957
    endloop
  endfacet
  facet normal -1 -0 -0
    outer loop
      vertex -55.940334320068359 29.712871551513672 1.9754661321640015
      vertex -55.940334320068359 29.034578323364258 1.9754661321640015
      vertex -55.940334320068359 29.170236587524414 2.2576756477355957
    endloop
  endfacet
  facet normal -1 0 0
    outer loop
      vertex -55.940334320068359 29.712871551513672 1.9754661321640015
      vertex -55.940334320068359 29.170236587524414 2.2576756477355957
      vertex -55.940334320068359 29.441555023193359 2.2576756477355957
    endloop
  endfacet
  facet normal -1 0 -0
    outer loop
      vertex -55.940334320068359 29.712871551513672 1.1288378238677979
      vertex -55.940334320068359 29.712871551513672 1.6932567358016968
      vertex -55.940334320068359 30.391166687011719 1.6932567358016968
    endloop
  endfacet
  facet normal -1 -0 0
    outer loop
      vertex -55.940334320068359 29.712871551513672 1.1288378238677979
      vertex -55.940334320068359 31.069459915161133 0
      vertex -55.940334320068359 28.356285095214844 0
    endloop
  endfacet
  facet normal -1 0 -0
    outer loop
      vertex -55.940334320068359 30.391166687011719 1.9754661321640015
      vertex -55.940334320068359 30.79814338684082 2.2576756477355957
      vertex -55.940334320068359 31.069459915161133 2.2576756477355957
    endloop
  endfacet
  facet normal -1 -0 0
    outer loop
      vertex -55.940334320068359 30.391166687011719 1.9754661321640015
      vertex -55.940334320068359 30.526824951171875 2.2576756477355957
      vertex -55.940334320068359 30.79814338684082 2.2576756477355957
    endloop
  endfacet
  facet normal -1 -0 0
    outer loop
      vertex -55.940334320068359 29.712871551513672 1.9754661321640015
      vertex -55.940334320068359 29.441555023193359 2.2576756477355957
      vertex -55.940334320068359 29.712871551513672 2.2576756477355957
    endloop
  endfacet
  facet normal -1 -0 0
    outer loop
      vertex -55.940334320068359 29.712871551513672 2.2576756477355957
      vertex -55.940334320068359 29.984189987182617 2.2576756477355957
      vertex -55.940334320068359 29.712871551513672 1.9754661321640015
    endloop
  endfacet
  facet normal -1 -0 0
    outer loop
      vertex -55.940334320068359 30.255508422851562 2.2576756477355957
      vertex -55.940334320068359 30.526824951171875 2.2576756477355957
      vertex -55.940334320068359 30.391166687011719 1.9754661321640015
    endloop
  endfacet
  facet normal -1 0 0
    outer loop
      vertex -55.940334320068359 26.999696731567383 1.1288378238677979
      vertex -55.940334320068359 28.356285095214844 1.1288378238677979
      vertex -55.940334320068359 28.356285095214844 0
    endloop
  endfacet
  facet normal -1 0 0
    outer loop
      vertex -55.940334320068359 25.643108367919922 1.1288378238677979
      vertex -55.940334320068359 26.999696731567383 1.1288378238677979
      vertex -55.940334320068359 25.643108367919922 0
    endloop
  endfacet
  facet normal -1 -0 -0
    outer loop
      vertex -55.940334320068359 28.356285095214844 0
      vertex -55.940334320068359 25.643108367919922 0
      vertex -55.940334320068359 26.999696731567383 1.1288378238677979
    endloop
  endfacet
  facet normal -1 0 -0
    outer loop
      vertex -55.940334320068359 25.643108367919922 1.1288378238677979
      vertex -55.940334320068359 25.643108367919922 2.2576756477355957
      vertex -55.940334320068359 26.999696731567383 2.2576756477355957
    endloop
  endfacet
  facet normal -1 0 0
    outer loop
      vertex -55.940334320068359 25.643108367919922 1.1288378238677979
      vertex -55.940334320068359 26.999696731567383 2.2576756477355957
      vertex -55.940334320068359 26.999696731567383 1.6932567358016968
    endloop
  endfacet
  facet normal -1 -0 -0
    outer loop
      vertex -55.940334320068359 26.999696731567383 1.1288378238677979
      vertex -55.940334320068359 25.643108367919922 1.1288378238677979
      vertex -55.940334320068359 26.999696731567383 1.6932567358016968
    endloop
  endfacet
  facet normal -1 -0 0
    outer loop
      vertex -55.940334320068359 28.356285095214844 1.9754661321640015
      vertex -55.940334320068359 28.356285095214844 1.6932567358016968
      vertex -55.940334320068359 26.999696731567383 1.6932567358016968
    endloop
  endfacet
  facet normal -1 -0 0
    outer loop
      vertex -55.940334320068359 28.898920059204102 2.2576756477355957
      vertex -55.940334320068359 29.170236587524414 2.2576756477355957
      vertex -55.940334320068359 29.034578323364258 1.9754661321640015
    endloop
  endfacet
  facet normal -1 -0 -0
    outer loop
      vertex -55.940334320068359 29.034578323364258 1.9754661321640015
      vertex -55.940334320068359 28.627601623535156 2.2576756477355957
      vertex -55.940334320068359 28.898920059204102 2.2576756477355957
    endloop
  endfacet
  facet normal -1 -0 0
    outer loop
      vertex -55.940334320068359 28.627601623535156 2.2576756477355957
      vertex -55.940334320068359 29.034578323364258 1.9754661321640015
      vertex -55.940334320068359 28.356285095214844 1.9754661321640015
    endloop
  endfacet
  facet normal -1 0 0
    outer loop
      vertex -55.940334320068359 26.999696731567383 2.2576756477355957
      vertex -55.940334320068359 28.356285095214844 2.2576756477355957
      vertex -55.940334320068359 28.356285095214844 1.9754661321640015
    endloop
  endfacet
  facet normal -1 0 -0
    outer loop
      vertex -55.940334320068359 28.627601623535156 2.2576756477355957
      vertex -55.940334320068359 28.356285095214844 1.9754661321640015
      vertex -55.940334320068359 28.356285095214844 2.2576756477355957
    endloop
  endfacet
  facet normal -1 0 -0
    outer loop
      vertex -55.940334320068359 26.999696731567383 1.6932567358016968
      vertex -55.940334320068359 26.999696731567383 2.2576756477355957
      vertex -55.940334320068359 28.356285095214844 1.9754661321640015
    endloop
  endfacet
  facet normal -1 0 0
    outer loop
      vertex -55.940334320068359 28.356285095214844 1.1288378238677979
      vertex -55.940334320068359 29.712871551513672 1.1288378238677979
      vertex -55.940334320068359 28.356285095214844 0
    endloop
  endfacet
  facet normal -0 0 -1
    outer loop
      vertex -55.940334320068359 28.356285095214844 0
      vertex -54.717124938964844 31.069459915161133 0
      vertex -53.493911743164062 31.069459915161133 0
    endloop
  endfacet
  facet normal -0 0 -1
    outer loop
      vertex -55.940334320068359 28.356285095214844 0
      vertex -53.493911743164062 31.069459915161133 0
      vertex -53.493911743164062 28.356285095214844 0
    endloop
  endfacet
  facet normal -0 0 -1
    outer loop
      vertex -55.940334320068359 28.356285095214844 0
      vertex -55.940334320068359 31.069459915161133 0
      vertex -54.717124938964844 31.069459915161133 0
    endloop
  endfacet
  facet normal 0 0 -1
    outer loop
      vertex -54.717124938964844 25.643108367919922 0
      vertex -55.940334320068359 25.643108367919922 0
      vertex -55.940334320068359 28.356285095214844 0
    endloop
  endfacet
  facet normal 0 -0 -1
    outer loop
      vertex -53.493911743164062 28.356285095214844 0
      vertex -53.493911743164062 25.643108367919922 0
      vertex -54.717124938964844 25.643108367919922 0
    endloop
  endfacet
  facet normal -0 0 -1
    outer loop
      vertex -54.717124938964844 25.643108367919922 0
      vertex -55.940334320068359 28.356285095214844 0
      vertex -53.493911743164062 28.356285095214844 0
    endloop
  endfacet
  facet normal -0 0 1
    outer loop
      vertex -54.105518341064453 27.677989959716797 2.2576756477355957
      vertex -54.717124938964844 27.677989959716797 2.2576756477355957
      vertex -54.717124938964844 26.999696731567383 2.2576756477355957
    endloop
  endfacet
  facet normal 0 0 1
    outer loop
      vertex -54.105518341064453 27.677989959716797 2.2576756477355957
      vertex -54.717124938964844 26.999696731567383 2.2576756477355957
      vertex -54.105518341064453 26.999696731567383 2.2576756477355957
    endloop
  endfacet
  facet normal -0 0 1
    outer loop
      vertex -54.717124938964844 27.677989959716797 2.2576756477355957
      vertex -55.328727722167969 27.677989959716797 2.2576756477355957
      vertex -55.328727722167969 26.999696731567383 2.2576756477355957
    endloop
  endfacet
  facet normal 0 0 1
    outer loop
      vertex -54.717124938964844 27.677989959716797 2.2576756477355957
      vertex -55.328727722167969 26.999696731567383 2.2576756477355957
      vertex -54.717124938964844 26.999696731567383 2.2576756477355957
    endloop
  endfacet
  facet normal -0 0 1
    outer loop
      vertex -55.328727722167969 26.999696731567383 2.2576756477355957
      vertex -55.940334320068359 26.999696731567383 2.2576756477355957
      vertex -55.940334320068359 25.643108367919922 2.2576756477355957
    endloop
  endfacet
  facet normal 0 0 1
    outer loop
      vertex -55.328727722167969 27.677989959716797 2.2576756477355957
      vertex -54.717124938964844 27.677989959716797 2.2576756477355957
      vertex -54.853034973144531 28.356285095214844 2.2576756477355957
    endloop
  endfacet
  facet normal -0 0 1
    outer loop
      vertex -55.328727722167969 27.677989959716797 2.2576756477355957
      vertex -54.853034973144531 28.356285095214844 2.2576756477355957
      vertex -55.124858856201172 28.356285095214844 2.2576756477355957
    endloop
  endfacet
  facet normal 0 0 1
    outer loop
      vertex -55.940334320068359 25.643108367919922 2.2576756477355957
      vertex -54.717124938964844 25.643108367919922 2.2576756477355957
      vertex -55.328727722167969 26.999696731567383 2.2576756477355957
    endloop
  endfacet
  facet normal 0 -0 1
    outer loop
      vertex -55.940334320068359 26.999696731567383 2.2576756477355957
      vertex -55.328727722167969 26.999696731567383 2.2576756477355957
      vertex -55.328727722167969 27.677989959716797 2.2576756477355957
    endloop
  endfacet
  facet normal 0 0 1
    outer loop
      vertex -55.940334320068359 28.356285095214844 2.2576756477355957
      vertex -55.940334320068359 26.999696731567383 2.2576756477355957
      vertex -55.328727722167969 27.677989959716797 2.2576756477355957
    endloop
  endfacet
  facet normal -0 -0 1
    outer loop
      vertex -55.328727722167969 27.677989959716797 2.2576756477355957
      vertex -55.668510437011719 28.356285095214844 2.2576756477355957
      vertex -55.940334320068359 28.356285095214844 2.2576756477355957
    endloop
  endfacet
  facet normal -0 0 1
    outer loop
      vertex -55.328727722167969 27.677989959716797 2.2576756477355957
      vertex -55.124858856201172 28.356285095214844 2.2576756477355957
      vertex -55.396686553955078 28.356285095214844 2.2576756477355957
    endloop
  endfacet
  facet normal -0 0 1
    outer loop
      vertex -55.396686553955078 28.356285095214844 2.2576756477355957
      vertex -55.668510437011719 28.356285095214844 2.2576756477355957
      vertex -55.328727722167969 27.677989959716797 2.2576756477355957
    endloop
  endfacet
  facet normal -0 0 1
    outer loop
      vertex -54.717124938964844 26.999696731567383 2.2576756477355957
      vertex -55.328727722167969 26.999696731567383 2.2576756477355957
      vertex -54.717124938964844 25.643108367919922 2.2576756477355957
    endloop
  endfacet
  facet normal -0 0 1
    outer loop
      vertex -53.493911743164062 26.999696731567383 2.2576756477355957
      vertex -54.105518341064453 26.999696731567383 2.2576756477355957
      vertex -53.493911743164062 25.643108367919922 2.2576756477355957
    endloop
  endfacet
  facet normal -0 0 1
    outer loop
      vertex -54.717124938964844 25.643108367919922 2.2576756477355957
      vertex -54.105518341064453 26.999696731567383 2.2576756477355957
      vertex -54.717124938964844 26.999696731567383 2.2576756477355957
    endloop
  endfacet
  facet normal 0 0 1
    outer loop
      vertex -54.105518341064453 26.999696731567383 2.2576756477355957
      vertex -54.717124938964844 25.643108367919922 2.2576756477355957
      vertex -53.493911743164062 25.643108367919922 2.2576756477355957
    endloop
  endfacet
  facet normal -0 -0 1
    outer loop
      vertex -53.493911743164062 26.999696731567383 2.2576756477355957
      vertex -54.105518341064453 27.677989959716797 2.2576756477355957
      vertex -54.105518341064453 26.999696731567383 2.2576756477355957
    endloop
  endfacet
  facet normal 0 0 1
    outer loop
      vertex -54.581211090087891 28.356285095214844 2.2576756477355957
      vertex -54.717124938964844 27.677989959716797 2.2576756477355957
      vertex -54.30938720703125 28.356285095214844 2.2576756477355957
    endloop
  endfacet
  facet normal -0 -0 1
    outer loop
      vertex -54.105518341064453 27.677989959716797 2.2576756477355957
      vertex -54.30938720703125 28.356285095214844 2.2576756477355957
      vertex -54.717124938964844 27.677989959716797 2.2576756477355957
    endloop
  endfacet
  facet normal -0 0 1
    outer loop
      vertex -54.037563323974609 28.356285095214844 2.2576756477355957
      vertex -54.30938720703125 28.356285095214844 2.2576756477355957
      vertex -54.105518341064453 27.677989959716797 2.2576756477355957
    endloop
  endfacet
  facet normal -0 0 1
    outer loop
      vertex -54.105518341064453 27.677989959716797 2.2576756477355957
      vertex -53.765735626220703 28.356285095214844 2.2576756477355957
      vertex -54.037563323974609 28.356285095214844 2.2576756477355957
    endloop
  endfacet
  facet normal -0 0 1
    outer loop
      vertex -54.105518341064453 27.677989959716797 2.2576756477355957
      vertex -53.493911743164062 28.356285095214844 2.2576756477355957
      vertex -53.765735626220703 28.356285095214844 2.2576756477355957
    endloop
  endfacet
  facet normal 0 -0 1
    outer loop
      vertex -53.493911743164062 28.356285095214844 2.2576756477355957
      vertex -54.105518341064453 27.677989959716797 2.2576756477355957
      vertex -53.493911743164062 26.999696731567383 2.2576756477355957
    endloop
  endfacet
  facet normal 0 0 1
    outer loop
      vertex -54.853034973144531 28.356285095214844 2.2576756477355957
      vertex -54.717124938964844 27.677989959716797 2.2576756477355957
      vertex -54.581211090087891 28.356285095214844 2.2576756477355957
    endloop
  endfacet
  facet normal -0 0 1
    outer loop
      vertex -55.241355895996094 29.131477355957031 2.2576756477355957
      vertex -55.590847015380859 29.131477355957031 2.2576756477355957
      vertex -55.590847015380859 28.743881225585938 2.2576756477355957
    endloop
  endfacet
  facet normal 0 0 1
    outer loop
      vertex -55.241355895996094 29.131477355957031 2.2576756477355957
      vertex -55.590847015380859 28.743881225585938 2.2576756477355957
      vertex -55.241355895996094 28.743881225585938 2.2576756477355957
    endloop
  endfacet
  facet normal -0 0 1
    outer loop
      vertex -55.241355895996094 29.519073486328125 2.2576756477355957
      vertex -55.590847015380859 29.519073486328125 2.2576756477355957
      vertex -55.590847015380859 29.131477355957031 2.2576756477355957
    endloop
  endfacet
  facet normal 0 0 1
    outer loop
      vertex -55.241355895996094 29.519073486328125 2.2576756477355957
      vertex -55.590847015380859 29.131477355957031 2.2576756477355957
      vertex -55.241355895996094 29.131477355957031 2.2576756477355957
    endloop
  endfacet
  facet normal -0 0 1
    outer loop
      vertex -55.241355895996094 29.906671524047852 2.2576756477355957
      vertex -55.590847015380859 29.906671524047852 2.2576756477355957
      vertex -55.590847015380859 29.519073486328125 2.2576756477355957
    endloop
  endfacet
  facet normal 0 0 1
    outer loop
      vertex -55.241355895996094 29.906671524047852 2.2576756477355957
      vertex -55.590847015380859 29.519073486328125 2.2576756477355957
      vertex -55.241355895996094 29.519073486328125 2.2576756477355957
    endloop
  endfacet
  facet normal -0 0 1
    outer loop
      vertex -55.241355895996094 30.294267654418945 2.2576756477355957
      vertex -55.590847015380859 30.294267654418945 2.2576756477355957
      vertex -55.590847015380859 29.906671524047852 2.2576756477355957
    endloop
  endfacet
  facet normal 0 0 1
    outer loop
      vertex -55.241355895996094 30.294267654418945 2.2576756477355957
      vertex -55.590847015380859 29.906671524047852 2.2576756477355957
      vertex -55.241355895996094 29.906671524047852 2.2576756477355957
    endloop
  endfacet
  facet normal -0 0 1
    outer loop
      vertex -55.241355895996094 30.681863784790039 2.2576756477355957
      vertex -55.590847015380859 30.681863784790039 2.2576756477355957
      vertex -55.590847015380859 30.294267654418945 2.2576756477355957
    endloop
  endfacet
  facet normal 0 0 1
    outer loop
      vertex -55.241355895996094 30.681863784790039 2.2576756477355957
      vertex -55.590847015380859 30.294267654418945 2.2576756477355957
      vertex -55.241355895996094 30.294267654418945 2.2576756477355957
    endloop
  endfacet
  facet normal -0 0 1
    outer loop
      vertex -54.891868591308594 29.131477355957031 2.2576756477355957
      vertex -55.241355895996094 29.131477355957031 2.2576756477355957
      vertex -55.241355895996094 28.743881225585938 2.2576756477355957
    endloop
  endfacet
  facet normal 0 0 1
    outer loop
      vertex -54.891868591308594 29.131477355957031 2.2576756477355957
      vertex -55.241355895996094 28.743881225585938 2.2576756477355957
      vertex -54.891868591308594 28.743881225585938 2.2576756477355957
    endloop
  endfacet
  facet normal -0 0 1
    outer loop
      vertex -54.891868591308594 29.519073486328125 2.2576756477355957
      vertex -55.241355895996094 29.519073486328125 2.2576756477355957
      vertex -55.241355895996094 29.131477355957031 2.2576756477355957
    endloop
  endfacet
  facet normal 0 0 1
    outer loop
      vertex -54.891868591308594 29.519073486328125 2.2576756477355957
      vertex -55.241355895996094 29.131477355957031 2.2576756477355957
      vertex -54.891868591308594 29.131477355957031 2.2576756477355957
    endloop
  endfacet
  facet normal -0 0 1
    outer loop
      vertex -54.891868591308594 29.906671524047852 2.2576756477355957
      vertex -55.241355895996094 29.906671524047852 2.2576756477355957
      vertex -55.241355895996094 29.519073486328125 2.2576756477355957
    endloop
  endfacet
  facet normal 0 0 1
    outer loop
      vertex -54.891868591308594 29.906671524047852 2.2576756477355957
      vertex -55.241355895996094 29.519073486328125 2.2576756477355957
      vertex -54.891868591308594 29.519073486328125 2.2576756477355957
    endloop
  endfacet
  facet normal -0 0 1
    outer loop
      vertex -54.891868591308594 30.294267654418945 2.2576756477355957
      vertex -55.241355895996094 30.294267654418945 2.2576756477355957
      vertex -55.241355895996094 29.906671524047852 2.2576756477355957
    endloop
  endfacet
  facet normal 0 0 1
    outer loop
      vertex -54.891868591308594 30.294267654418945 2.2576756477355957
      vertex -55.241355895996094 29.906671524047852 2.2576756477355957
      vertex -54.891868591308594 29.906671524047852 2.2576756477355957
    endloop
  endfacet
  facet normal -0 0 1
    outer loop
      vertex -54.891868591308594 30.681863784790039 2.2576756477355957
      vertex -55.241355895996094 30.681863784790039 2.2576756477355957
      vertex -55.241355895996094 30.294267654418945 2.2576756477355957
    endloop
  endfacet
  facet normal 0 0 1
    outer loop
      vertex -54.891868591308594 30.681863784790039 2.2576756477355957
      vertex -55.241355895996094 30.294267654418945 2.2576756477355957
      vertex -54.891868591308594 30.294267654418945 2.2576756477355957
    endloop
  endfacet
  facet normal -0 0 1
    outer loop
      vertex -54.542377471923828 29.131477355957031 2.2576756477355957
      vertex -54.891868591308594 29.131477355957031 2.2576756477355957
      vertex -54.891868591308594 28.743881225585938 2.2576756477355957
    endloop
  endfacet
  facet normal 0 0 1
    outer loop
      vertex -54.542377471923828 29.131477355957031 2.2576756477355957
      vertex -54.891868591308594 28.743881225585938 2.2576756477355957
      vertex -54.542377471923828 28.743881225585938 2.2576756477355957
    endloop
  endfacet
  facet normal -0 0 1
    outer loop
      vertex -54.542377471923828 29.519073486328125 2.2576756477355957
      vertex -54.891868591308594 29.519073486328125 2.2576756477355957
      vertex -54.891868591308594 29.131477355957031 2.2576756477355957
    endloop
  endfacet
  facet normal 0 0 1
    outer loop
      vertex -54.542377471923828 29.519073486328125 2.2576756477355957
      vertex -54.891868591308594 29.131477355957031 2.2576756477355957
      vertex -54.542377471923828 29.131477355957031 2.2576756477355957
    endloop
  endfacet
  facet normal -0 0 1
    outer loop
      vertex -54.192890167236328 29.131477355957031 2.2576756477355957
      vertex -54.542377471923828 29.131477355957031 2.2576756477355957
      vertex -54.542377471923828 28.743881225585938 2.2576756477355957
    endloop
  endfacet
  facet normal 0 0 1
    outer loop
      vertex -54.192890167236328 29.131477355957031 2.2576756477355957
      vertex -54.542377471923828 28.743881225585938 2.2576756477355957
      vertex -54.192890167236328 28.743881225585938 2.2576756477355957
    endloop
  endfacet
  facet normal -0 0 1
    outer loop
      vertex -54.192890167236328 29.519073486328125 2.2576756477355957
      vertex -54.542377471923828 29.519073486328125 2.2576756477355957
      vertex -54.542377471923828 29.131477355957031 2.2576756477355957
    endloop
  endfacet
  facet normal 0 0 1
    outer loop
      vertex -54.192890167236328 29.519073486328125 2.2576756477355957
      vertex -54.542377471923828 29.131477355957031 2.2576756477355957
      vertex -54.192890167236328 29.131477355957031 2.2576756477355957
    endloop
  endfacet
  facet normal -0 0 1
    outer loop
      vertex -53.843402862548828 29.131477355957031 2.2576756477355957
      vertex -54.192890167236328 29.131477355957031 2.2576756477355957
      vertex -54.192890167236328 28.743881225585938 2.2576756477355957
    endloop
  endfacet
  facet normal 0 0 1
    outer loop
      vertex -53.843402862548828 29.131477355957031 2.2576756477355957
      vertex -54.192890167236328 28.743881225585938 2.2576756477355957
      vertex -53.843402862548828 28.743881225585938 2.2576756477355957
    endloop
  endfacet
  facet normal -0 0 1
    outer loop
      vertex -53.843402862548828 29.519073486328125 2.2576756477355957
      vertex -54.192890167236328 29.519073486328125 2.2576756477355957
      vertex -54.192890167236328 29.131477355957031 2.2576756477355957
    endloop
  endfacet
  facet normal 0 0 1
    outer loop
      vertex -53.843402862548828 29.519073486328125 2.2576756477355957
      vertex -54.192890167236328 29.131477355957031 2.2576756477355957
      vertex -53.843402862548828 29.131477355957031 2.2576756477355957
    endloop
  endfacet
  facet normal 0 -0 1
    outer loop
      vertex -55.668510437011719 28.356285095214844 2.2576756477355957
      vertex -55.940334320068359 28.627601623535156 2.2576756477355957
      vertex -55.940334320068359 28.356285095214844 2.2576756477355957
    endloop
  endfacet
  facet normal 0 -0 1
    outer loop
      vertex -55.940334320068359 28.627601623535156 2.2576756477355957
      vertex -55.668510437011719 28.356285095214844 2.2576756477355957
      vertex -55.590847015380859 28.743881225585938 2.2576756477355957
    endloop
  endfacet
  facet normal -0 -0 1
    outer loop
      vertex -55.396686553955078 28.356285095214844 2.2576756477355957
      vertex -55.590847015380859 28.743881225585938 2.2576756477355957
      vertex -55.668510437011719 28.356285095214844 2.2576756477355957
    endloop
  endfacet
  facet normal 0 -0 1
    outer loop
      vertex -55.940334320068359 28.898920059204102 2.2576756477355957
      vertex -55.940334320068359 28.627601623535156 2.2576756477355957
      vertex -55.590847015380859 28.743881225585938 2.2576756477355957
    endloop
  endfacet
  facet normal 0 -0 1
    outer loop
      vertex -55.590847015380859 29.131477355957031 2.2576756477355957
      vertex -55.940334320068359 29.170236587524414 2.2576756477355957
      vertex -55.940334320068359 28.898920059204102 2.2576756477355957
    endloop
  endfacet
  facet normal 0 -0 1
    outer loop
      vertex -55.590847015380859 29.519073486328125 2.2576756477355957
      vertex -55.940334320068359 29.712871551513672 2.2576756477355957
      vertex -55.940334320068359 29.441555023193359 2.2576756477355957
    endloop
  endfacet
  facet normal -0 -0 1
    outer loop
      vertex -55.940334320068359 29.441555023193359 2.2576756477355957
      vertex -55.940334320068359 29.170236587524414 2.2576756477355957
      vertex -55.590847015380859 29.131477355957031 2.2576756477355957
    endloop
  endfacet
  facet normal 0 -0 1
    outer loop
      vertex -55.940334320068359 29.441555023193359 2.2576756477355957
      vertex -55.590847015380859 29.131477355957031 2.2576756477355957
      vertex -55.590847015380859 29.519073486328125 2.2576756477355957
    endloop
  endfacet
  facet normal 0 -0 1
    outer loop
      vertex -55.590847015380859 29.131477355957031 2.2576756477355957
      vertex -55.940334320068359 28.898920059204102 2.2576756477355957
      vertex -55.590847015380859 28.743881225585938 2.2576756477355957
    endloop
  endfacet
  facet normal -0 -0 1
    outer loop
      vertex -55.124858856201172 28.356285095214844 2.2576756477355957
      vertex -55.241355895996094 28.743881225585938 2.2576756477355957
      vertex -55.396686553955078 28.356285095214844 2.2576756477355957
    endloop
  endfacet
  facet normal -0 0 1
    outer loop
      vertex -54.891868591308594 28.743881225585938 2.2576756477355957
      vertex -55.241355895996094 28.743881225585938 2.2576756477355957
      vertex -55.124858856201172 28.356285095214844 2.2576756477355957
    endloop
  endfacet
  facet normal 0 0 1
    outer loop
      vertex -54.891868591308594 28.743881225585938 2.2576756477355957
      vertex -55.124858856201172 28.356285095214844 2.2576756477355957
      vertex -54.853034973144531 28.356285095214844 2.2576756477355957
    endloop
  endfacet
  facet normal 0 -0 1
    outer loop
      vertex -55.940334320068359 29.712871551513672 2.2576756477355957
      vertex -55.590847015380859 29.519073486328125 2.2576756477355957
      vertex -55.590847015380859 29.906671524047852 2.2576756477355957
    endloop
  endfacet
  facet normal -0 -0 1
    outer loop
      vertex -54.688629150390625 29.839040756225586 2.2576756477355957
      vertex -54.891868591308594 29.519073486328125 2.2576756477355957
      vertex -54.542377471923828 29.519073486328125 2.2576756477355957
    endloop
  endfacet
  facet normal -0 0 1
    outer loop
      vertex -54.688629150390625 29.839040756225586 2.2576756477355957
      vertex -54.891868591308594 29.906671524047852 2.2576756477355957
      vertex -54.891868591308594 29.519073486328125 2.2576756477355957
    endloop
  endfacet
  facet normal -0 0 1
    outer loop
      vertex -54.542377471923828 28.743881225585938 2.2576756477355957
      vertex -54.891868591308594 28.743881225585938 2.2576756477355957
      vertex -54.853034973144531 28.356285095214844 2.2576756477355957
    endloop
  endfacet
  facet normal 0 0 1
    outer loop
      vertex -54.542377471923828 28.743881225585938 2.2576756477355957
      vertex -54.853034973144531 28.356285095214844 2.2576756477355957
      vertex -54.581211090087891 28.356285095214844 2.2576756477355957
    endloop
  endfacet
  facet normal -0 0 1
    outer loop
      vertex -55.396686553955078 28.356285095214844 2.2576756477355957
      vertex -55.241355895996094 28.743881225585938 2.2576756477355957
      vertex -55.590847015380859 28.743881225585938 2.2576756477355957
    endloop
  endfacet
  facet normal 0 -0 1
    outer loop
      vertex -55.940334320068359 29.984189987182617 2.2576756477355957
      vertex -55.940334320068359 29.712871551513672 2.2576756477355957
      vertex -55.590847015380859 29.906671524047852 2.2576756477355957
    endloop
  endfacet
  facet normal -0 -0 1
    outer loop
      vertex -55.940334320068359 30.255508422851562 2.2576756477355957
      vertex -55.940334320068359 29.984189987182617 2.2576756477355957
      vertex -55.590847015380859 29.906671524047852 2.2576756477355957
    endloop
  endfacet
  facet normal 0 -0 1
    outer loop
      vertex -55.940334320068359 30.255508422851562 2.2576756477355957
      vertex -55.590847015380859 29.906671524047852 2.2576756477355957
      vertex -55.590847015380859 30.294267654418945 2.2576756477355957
    endloop
  endfacet
  facet normal -0 -0 1
    outer loop
      vertex -55.590847015380859 30.294267654418945 2.2576756477355957
      vertex -55.590847015380859 30.681863784790039 2.2576756477355957
      vertex -55.940334320068359 30.526824951171875 2.2576756477355957
    endloop
  endfacet
  facet normal 0 -0 1
    outer loop
      vertex -55.590847015380859 30.294267654418945 2.2576756477355957
      vertex -55.940334320068359 30.526824951171875 2.2576756477355957
      vertex -55.940334320068359 30.255508422851562 2.2576756477355957
    endloop
  endfacet
  facet normal 0 -0 1
    outer loop
      vertex -55.668510437011719 31.069459915161133 2.2576756477355957
      vertex -55.940334320068359 31.069459915161133 2.2576756477355957
      vertex -55.940334320068359 30.79814338684082 2.2576756477355957
    endloop
  endfacet
  facet normal -0 0 1
    outer loop
      vertex -55.396686553955078 31.069459915161133 2.2576756477355957
      vertex -55.668510437011719 31.069459915161133 2.2576756477355957
      vertex -55.590847015380859 30.681863784790039 2.2576756477355957
    endloop
  endfacet
  facet normal 0 0 1
    outer loop
      vertex -55.940334320068359 30.79814338684082 2.2576756477355957
      vertex -55.590847015380859 30.681863784790039 2.2576756477355957
      vertex -55.668510437011719 31.069459915161133 2.2576756477355957
    endloop
  endfacet
  facet normal 0 0 1
    outer loop
      vertex -55.590847015380859 30.681863784790039 2.2576756477355957
      vertex -55.241355895996094 30.681863784790039 2.2576756477355957
      vertex -55.396686553955078 31.069459915161133 2.2576756477355957
    endloop
  endfacet
  facet normal 0 -0 1
    outer loop
      vertex -55.590847015380859 30.681863784790039 2.2576756477355957
      vertex -55.940334320068359 30.79814338684082 2.2576756477355957
      vertex -55.940334320068359 30.526824951171875 2.2576756477355957
    endloop
  endfacet
  facet normal 0 0 1
    outer loop
      vertex -54.891868591308594 30.294267654418945 2.2576756477355957
      vertex -54.891868591308594 29.906671524047852 2.2576756477355957
      vertex -54.688629150390625 30.044111251831055 2.2576756477355957
    endloop
  endfacet
  facet normal 0 0 1
    outer loop
      vertex -54.891868591308594 30.294267654418945 2.2576756477355957
      vertex -54.688629150390625 30.044111251831055 2.2576756477355957
      vertex -54.688629150390625 30.249179840087891 2.2576756477355957
    endloop
  endfacet
  facet normal 0 -0 1
    outer loop
      vertex -54.688629150390625 30.044111251831055 2.2576756477355957
      vertex -54.891868591308594 29.906671524047852 2.2576756477355957
      vertex -54.688629150390625 29.839040756225586 2.2576756477355957
    endloop
  endfacet
  facet normal 0 -0 1
    outer loop
      vertex -54.688629150390625 30.454250335693359 2.2576756477355957
      vertex -54.891868591308594 30.294267654418945 2.2576756477355957
      vertex -54.688629150390625 30.249179840087891 2.2576756477355957
    endloop
  endfacet
  facet normal 0 0 1
    outer loop
      vertex -55.396686553955078 31.069459915161133 2.2576756477355957
      vertex -55.241355895996094 30.681863784790039 2.2576756477355957
      vertex -55.124858856201172 31.069459915161133 2.2576756477355957
    endloop
  endfacet
  facet normal 0 0 1
    outer loop
      vertex -55.241355895996094 30.681863784790039 2.2576756477355957
      vertex -54.891868591308594 30.681863784790039 2.2576756477355957
      vertex -54.853034973144531 31.069459915161133 2.2576756477355957
    endloop
  endfacet
  facet normal -0 0 1
    outer loop
      vertex -55.241355895996094 30.681863784790039 2.2576756477355957
      vertex -54.853034973144531 31.069459915161133 2.2576756477355957
      vertex -55.124858856201172 31.069459915161133 2.2576756477355957
    endloop
  endfacet
  facet normal -0 0 1
    outer loop
      vertex -54.581211090087891 31.069459915161133 2.2576756477355957
      vertex -54.853034973144531 31.069459915161133 2.2576756477355957
      vertex -54.891868591308594 30.681863784790039 2.2576756477355957
    endloop
  endfacet
  facet normal 0 -0 1
    outer loop
      vertex -54.489509582519531 30.454250335693359 2.2576756477355957
      vertex -54.891868591308594 30.681863784790039 2.2576756477355957
      vertex -54.688629150390625 30.454250335693359 2.2576756477355957
    endloop
  endfacet
  facet normal 0 0 1
    outer loop
      vertex -54.891868591308594 30.681863784790039 2.2576756477355957
      vertex -54.891868591308594 30.294267654418945 2.2576756477355957
      vertex -54.688629150390625 30.454250335693359 2.2576756477355957
    endloop
  endfacet
  facet normal 0 0 1
    outer loop
      vertex -54.581211090087891 28.356285095214844 2.2576756477355957
      vertex -54.30938720703125 28.356285095214844 2.2576756477355957
      vertex -54.192890167236328 28.743881225585938 2.2576756477355957
    endloop
  endfacet
  facet normal -0 0 1
    outer loop
      vertex -54.581211090087891 28.356285095214844 2.2576756477355957
      vertex -54.192890167236328 28.743881225585938 2.2576756477355957
      vertex -54.542377471923828 28.743881225585938 2.2576756477355957
    endloop
  endfacet
  facet normal -0 -0 1
    outer loop
      vertex -54.037563323974609 28.356285095214844 2.2576756477355957
      vertex -54.192890167236328 28.743881225585938 2.2576756477355957
      vertex -54.30938720703125 28.356285095214844 2.2576756477355957
    endloop
  endfacet
  facet normal -0 0 1
    outer loop
      vertex -54.290390014648438 29.839040756225586 2.2576756477355957
      vertex -54.489509582519531 29.839040756225586 2.2576756477355957
      vertex -54.542377471923828 29.519073486328125 2.2576756477355957
    endloop
  endfacet
  facet normal -0 -0 1
    outer loop
      vertex -54.290390014648438 29.839040756225586 2.2576756477355957
      vertex -54.542377471923828 29.519073486328125 2.2576756477355957
      vertex -54.192890167236328 29.519073486328125 2.2576756477355957
    endloop
  endfacet
  facet normal -0 0 1
    outer loop
      vertex -53.843402862548828 28.743881225585938 2.2576756477355957
      vertex -54.192890167236328 28.743881225585938 2.2576756477355957
      vertex -54.037563323974609 28.356285095214844 2.2576756477355957
    endloop
  endfacet
  facet normal 0 0 1
    outer loop
      vertex -53.843402862548828 28.743881225585938 2.2576756477355957
      vertex -54.037563323974609 28.356285095214844 2.2576756477355957
      vertex -53.765735626220703 28.356285095214844 2.2576756477355957
    endloop
  endfacet
  facet normal -0 0 1
    outer loop
      vertex -54.489509582519531 29.839040756225586 2.2576756477355957
      vertex -54.688629150390625 29.839040756225586 2.2576756477355957
      vertex -54.542377471923828 29.519073486328125 2.2576756477355957
    endloop
  endfacet
  facet normal 0 -0 1
    outer loop
      vertex -53.493911743164062 28.627601623535156 2.2576756477355957
      vertex -53.765735626220703 28.356285095214844 2.2576756477355957
      vertex -53.493911743164062 28.356285095214844 2.2576756477355957
    endloop
  endfacet
  facet normal 0 0 1
    outer loop
      vertex -53.493911743164062 28.627601623535156 2.2576756477355957
      vertex -53.493911743164062 28.898920059204102 2.2576756477355957
      vertex -53.843402862548828 28.743881225585938 2.2576756477355957
    endloop
  endfacet
  facet normal 0 0 1
    outer loop
      vertex -53.843402862548828 29.131477355957031 2.2576756477355957
      vertex -53.843402862548828 28.743881225585938 2.2576756477355957
      vertex -53.493911743164062 28.898920059204102 2.2576756477355957
    endloop
  endfacet
  facet normal 0 0 1
    outer loop
      vertex -53.843402862548828 29.131477355957031 2.2576756477355957
      vertex -53.493911743164062 28.898920059204102 2.2576756477355957
      vertex -53.493911743164062 29.170236587524414 2.2576756477355957
    endloop
  endfacet
  facet normal 0 0 1
    outer loop
      vertex -53.843402862548828 29.519073486328125 2.2576756477355957
      vertex -53.843402862548828 29.131477355957031 2.2576756477355957
      vertex -53.493911743164062 29.170236587524414 2.2576756477355957
    endloop
  endfacet
  facet normal 0 0 1
    outer loop
      vertex -53.843402862548828 29.519073486328125 2.2576756477355957
      vertex -53.493911743164062 29.170236587524414 2.2576756477355957
      vertex -53.493911743164062 29.441555023193359 2.2576756477355957
    endloop
  endfacet
  facet normal 0 0 1
    outer loop
      vertex -53.843402862548828 29.519073486328125 2.2576756477355957
      vertex -53.493911743164062 29.441555023193359 2.2576756477355957
      vertex -53.493911743164062 29.712871551513672 2.2576756477355957
    endloop
  endfacet
  facet normal -0 -0 1
    outer loop
      vertex -53.843402862548828 29.519073486328125 2.2576756477355957
      vertex -54.091270446777344 29.839040756225586 2.2576756477355957
      vertex -54.192890167236328 29.519073486328125 2.2576756477355957
    endloop
  endfacet
  facet normal -0 0 1
    outer loop
      vertex -53.765735626220703 28.356285095214844 2.2576756477355957
      vertex -53.493911743164062 28.627601623535156 2.2576756477355957
      vertex -53.843402862548828 28.743881225585938 2.2576756477355957
    endloop
  endfacet
  facet normal -0 0 1
    outer loop
      vertex -53.493911743164062 29.712871551513672 2.2576756477355957
      vertex -53.493911743164062 29.984189987182617 2.2576756477355957
      vertex -53.843402862548828 29.519073486328125 2.2576756477355957
    endloop
  endfacet
  facet normal -0 0 1
    outer loop
      vertex -54.192890167236328 29.519073486328125 2.2576756477355957
      vertex -54.091270446777344 29.839040756225586 2.2576756477355957
      vertex -54.290390014648438 29.839040756225586 2.2576756477355957
    endloop
  endfacet
  facet normal 0 -0 1
    outer loop
      vertex -53.843402862548828 30.294267654418945 2.2576756477355957
      vertex -54.091270446777344 30.249179840087891 2.2576756477355957
      vertex -54.091270446777344 30.044111251831055 2.2576756477355957
    endloop
  endfacet
  facet normal -0 -0 1
    outer loop
      vertex -53.843402862548828 29.519073486328125 2.2576756477355957
      vertex -53.843402862548828 30.294267654418945 2.2576756477355957
      vertex -54.091270446777344 30.044111251831055 2.2576756477355957
    endloop
  endfacet
  facet normal -0 -0 1
    outer loop
      vertex -53.843402862548828 29.519073486328125 2.2576756477355957
      vertex -54.091270446777344 30.044111251831055 2.2576756477355957
      vertex -54.091270446777344 29.839040756225586 2.2576756477355957
    endloop
  endfacet
  facet normal -0 0 1
    outer loop
      vertex -54.891868591308594 30.681863784790039 2.2576756477355957
      vertex -54.192890167236328 30.681863784790039 2.2576756477355957
      vertex -54.30938720703125 31.069459915161133 2.2576756477355957
    endloop
  endfacet
  facet normal -0 0 1
    outer loop
      vertex -54.891868591308594 30.681863784790039 2.2576756477355957
      vertex -54.30938720703125 31.069459915161133 2.2576756477355957
      vertex -54.581211090087891 31.069459915161133 2.2576756477355957
    endloop
  endfacet
  facet normal 0 0 1
    outer loop
      vertex -54.891868591308594 30.681863784790039 2.2576756477355957
      vertex -54.489509582519531 30.454250335693359 2.2576756477355957
      vertex -54.192890167236328 30.681863784790039 2.2576756477355957
    endloop
  endfacet
  facet normal 0 0 1
    outer loop
      vertex -54.290390014648438 30.454250335693359 2.2576756477355957
      vertex -54.192890167236328 30.681863784790039 2.2576756477355957
      vertex -54.489509582519531 30.454250335693359 2.2576756477355957
    endloop
  endfacet
  facet normal 0 0 1
    outer loop
      vertex -54.290390014648438 30.454250335693359 2.2576756477355957
      vertex -54.091270446777344 30.454250335693359 2.2576756477355957
      vertex -54.192890167236328 30.681863784790039 2.2576756477355957
    endloop
  endfacet
  facet normal -0 0 1
    outer loop
      vertex -54.037563323974609 31.069459915161133 2.2576756477355957
      vertex -54.30938720703125 31.069459915161133 2.2576756477355957
      vertex -54.192890167236328 30.681863784790039 2.2576756477355957
    endloop
  endfacet
  facet normal -0 -0 1
    outer loop
      vertex -53.843402862548828 30.294267654418945 2.2576756477355957
      vertex -53.843402862548828 30.681863784790039 2.2576756477355957
      vertex -54.091270446777344 30.454250335693359 2.2576756477355957
    endloop
  endfacet
  facet normal 0 -0 1
    outer loop
      vertex -53.843402862548828 30.294267654418945 2.2576756477355957
      vertex -54.091270446777344 30.454250335693359 2.2576756477355957
      vertex -54.091270446777344 30.249179840087891 2.2576756477355957
    endloop
  endfacet
  facet normal 0 0 1
    outer loop
      vertex -53.843402862548828 30.294267654418945 2.2576756477355957
      vertex -53.493911743164062 29.984189987182617 2.2576756477355957
      vertex -53.493911743164062 30.255508422851562 2.2576756477355957
    endloop
  endfacet
  facet normal 0 0 1
    outer loop
      vertex -53.843402862548828 30.294267654418945 2.2576756477355957
      vertex -53.493911743164062 30.255508422851562 2.2576756477355957
      vertex -53.493911743164062 30.526824951171875 2.2576756477355957
    endloop
  endfacet
  facet normal -0 0 1
    outer loop
      vertex -53.493911743164062 30.526824951171875 2.2576756477355957
      vertex -53.843402862548828 30.681863784790039 2.2576756477355957
      vertex -53.843402862548828 30.294267654418945 2.2576756477355957
    endloop
  endfacet
  facet normal -0 0 1
    outer loop
      vertex -53.765735626220703 31.069459915161133 2.2576756477355957
      vertex -54.037563323974609 31.069459915161133 2.2576756477355957
      vertex -53.843402862548828 30.681863784790039 2.2576756477355957
    endloop
  endfacet
  facet normal -0 -0 1
    outer loop
      vertex -53.843402862548828 30.681863784790039 2.2576756477355957
      vertex -54.037563323974609 31.069459915161133 2.2576756477355957
      vertex -54.192890167236328 30.681863784790039 2.2576756477355957
    endloop
  endfacet
  facet normal 0 -0 1
    outer loop
      vertex -53.493911743164062 31.069459915161133 2.2576756477355957
      vertex -53.765735626220703 31.069459915161133 2.2576756477355957
      vertex -53.493911743164062 30.79814338684082 2.2576756477355957
    endloop
  endfacet
  facet normal -0 0 1
    outer loop
      vertex -53.843402862548828 30.681863784790039 2.2576756477355957
      vertex -53.493911743164062 30.79814338684082 2.2576756477355957
      vertex -53.765735626220703 31.069459915161133 2.2576756477355957
    endloop
  endfacet
  facet normal 0 -0 1
    outer loop
      vertex -53.493911743164062 30.79814338684082 2.2576756477355957
      vertex -53.843402862548828 30.681863784790039 2.2576756477355957
      vertex -53.493911743164062 30.526824951171875 2.2576756477355957
    endloop
  endfacet
  facet normal 0 0 1
    outer loop
      vertex -54.091270446777344 30.454250335693359 2.2576756477355957
      vertex -53.843402862548828 30.681863784790039 2.2576756477355957
      vertex -54.192890167236328 30.681863784790039 2.2576756477355957
    endloop
  endfacet
  facet normal -0 0 1
    outer loop
      vertex -53.843402862548828 29.519073486328125 2.2576756477355957
      vertex -53.493911743164062 29.984189987182617 2.2576756477355957
      vertex -53.843402862548828 30.294267654418945 2.2576756477355957
    endloop
  endfacet
  facet normal 0 0 1
    outer loop
      vertex -54.688629150390625 30.044111251831055 2.2576756477355957
      vertex -54.688629150390625 29.839040756225586 2.2576756477355957
      vertex -54.489509582519531 29.839040756225586 2.2576756477355957
    endloop
  endfacet
  facet normal -0 -0 1
    outer loop
      vertex -54.688629150390625 30.249179840087891 2.2576756477355957
      vertex -54.688629150390625 30.044111251831055 2.2576756477355957
      vertex -54.489509582519531 29.839040756225586 2.2576756477355957
    endloop
  endfacet
  facet normal 0 0 1
    outer loop
      vertex -54.688629150390625 30.454250335693359 2.2576756477355957
      vertex -54.688629150390625 30.249179840087891 2.2576756477355957
      vertex -54.489509582519531 30.454250335693359 2.2576756477355957
    endloop
  endfacet
  facet normal 0 0 1
    outer loop
      vertex -54.688629150390625 30.249179840087891 2.2576756477355957
      vertex -54.290390014648438 29.839040756225586 2.2576756477355957
      vertex -54.489509582519531 30.454250335693359 2.2576756477355957
    endloop
  endfacet
  facet normal -0 -0 1
    outer loop
      vertex -54.290390014648438 29.839040756225586 2.2576756477355957
      vertex -54.688629150390625 30.249179840087891 2.2576756477355957
      vertex -54.489509582519531 29.839040756225586 2.2576756477355957
    endloop
  endfacet
  facet normal 0 0 1
    outer loop
      vertex -54.091270446777344 30.044111251831055 2.2576756477355957
      vertex -54.290390014648438 29.839040756225586 2.2576756477355957
      vertex -54.091270446777344 29.839040756225586 2.2576756477355957
    endloop
  endfacet
  facet normal -0 0 1
    outer loop
      vertex -54.091270446777344 30.249179840087891 2.2576756477355957
      vertex -54.290390014648438 29.839040756225586 2.2576756477355957
      vertex -54.091270446777344 30.044111251831055 2.2576756477355957
    endloop
  endfacet
  facet normal -0 0 1
    outer loop
      vertex -54.091270446777344 30.454250335693359 2.2576756477355957
      vertex -54.290390014648438 30.454250335693359 2.2576756477355957
      vertex -54.091270446777344 30.249179840087891 2.2576756477355957
    endloop
  endfacet
  facet normal -0 -0 1
    outer loop
      vertex -54.091270446777344 30.249179840087891 2.2576756477355957
      vertex -54.290390014648438 30.454250335693359 2.2576756477355957
      vertex -54.489509582519531 30.454250335693359 2.2576756477355957
    endloop
  endfacet
  facet normal -0 0 1
    outer loop
      vertex -54.290390014648438 29.839040756225586 2.2576756477355957
      vertex -54.091270446777344 30.249179840087891 2.2576756477355957
      vertex -54.489509582519531 30.454250335693359 2.2576756477355957
    endloop
  endfacet
  facet normal -0 -0 1
    outer loop
      vertex -53.493911743164062 25.643108367919922 0
      vertex -53.493911743164062 31.069459915161133 0
      vertex -55.940334320068359 31.069459915161133 0
    endloop
  endfacet
  facet normal -0 -0 1
    outer loop
      vertex -53.493911743164062 25.643108367919922 0
      vertex -55.940334320068359 31.069459915161133 0
      vertex -55.940334320068359 25.643108367919922 0
    endloop
  endfacet
endsolid OBJECT
